<?xml version="1.0" encoding="UTF-8"?>
<svg id="Layer_1" data-name="Layer 1" xmlns="http://www.w3.org/2000/svg" xmlns:xlink="http://www.w3.org/1999/xlink" viewBox="0 0 123.98 95.83">
  <defs>
    <style>
      .cls-1 {
        fill: #231f20;
        font-family: HelveticaNeue-Bold, 'Helvetica Neue';
        font-size: 72px;
        font-weight: 700;
      }

      .cls-2 {
        fill: url(#linear-gradient);
      }
    </style>
    <linearGradient id="linear-gradient" x1="4.97" y1="42.3" x2="119.81" y2="42.3" gradientUnits="userSpaceOnUse">
      <stop offset="0" stop-color="#925ca6"/>
      <stop offset="1" stop-color="#e88e24"/>
    </linearGradient>
  </defs>
  <text class="cls-1" transform="translate(0 61.2)"><tspan x="0" y="0">Fuji</tspan></text>
  <g>
    <path class="cls-2" d="M41.12,19.36h-24.91v11.88h21.67v8.93h-21.67v21.03H4.97V9.93h36.15v9.43Z"/>
    <path class="cls-2" d="M81.44,61.2h-9.72v-5.26c-2.88,4.22-6.91,6.34-12.1,6.34-4.08,0-7.26-1.12-9.54-3.35-2.28-2.23-3.42-5.53-3.42-9.9v-24.99h10.3v21.24c0,1.39.06,2.51.18,3.35.12.84.37,1.69.76,2.56.38.86,1.02,1.5,1.91,1.91s2.03.61,3.42.61c5.38,0,8.06-3.5,8.06-10.51v-19.15h10.15v37.16Z"/>
    <path class="cls-2" d="M100.51,61.27c0,4.9-.88,8.35-2.63,10.37-1.75,2.02-5,3.02-9.76,3.02-1.34,0-2.71-.05-4.1-.14v-8.21c.58.05,1.2.07,1.87.07,1.06,0,1.88-.1,2.48-.29.6-.19,1.04-.55,1.33-1.08.29-.53.46-1.06.5-1.58.05-.53.07-1.34.07-2.45V24.04h10.22v37.23ZM100.51,18.72h-10.22v-8.78h10.22v8.78Z"/>
    <path class="cls-2" d="M119.81,18.57h-10.23v-8.64h10.23v8.64ZM119.81,61.2h-10.23V24.04h10.23v37.16Z"/>
  </g>
</svg>